<svg width="16" height="13" viewBox="0 0 16 13" fill="none" xmlns="http://www.w3.org/2000/svg">
<path d="M16 1V4C16 4.28125 15.9036 4.51823 15.7109 4.71094C15.5182 4.90365 15.2813 5 15 5H14V12.5C14 12.6354 13.9505 12.7526 13.8516 12.8516C13.7526 12.9505 13.6354 13 13.5 13H12.5C12.3646 13 12.2474 12.9505 12.1484 12.8516C12.0495 12.7526 12 12.6354 12 12.5V9H4V12.5C4 12.6354 3.95052 12.7526 3.85156 12.8516C3.7526 12.9505 3.63542 13 3.5 13H2.5C2.36458 13 2.2474 12.9505 2.14844 12.8516C2.04948 12.7526 2 12.6354 2 12.5V5H1C0.71875 5 0.481771 4.90365 0.289063 4.71094C0.0963542 4.51823 0 4.28125 0 4V1C0 0.71875 0.0963542 0.481771 0.289063 0.289063C0.481771 0.0963542 0.71875 0 1 0H15C15.2813 0 15.5182 0.0963542 15.7109 0.289063C15.9036 0.481771 16 0.71875 16 1ZM4 8H12V5H4V8ZM1 1V2L2 1H1ZM1 4H3L6 1H4L1 4ZM8 1L5 4H7L10 1H8ZM12 1L9 4H11L14 1H12ZM15 2L13 4H15V2Z" fill="#C4C4C4"/>
</svg>
