<svg width="15" height="21" viewBox="0 0 15 21" fill="none" xmlns="http://www.w3.org/2000/svg">
<path d="M9.64286 11V9L7.5 10L5.35714 9V11L3.21429 12L5.35714 13V15L7.5 14L9.64286 15V13L11.7857 12L9.64286 11ZM9.64286 0H2.14286C1.57454 0 1.02949 0.210714 0.627628 0.585786C0.225765 0.960859 0 1.46957 0 2V16C0 16.5304 0.225765 17.0391 0.627628 17.4142C1.02949 17.7893 1.57454 18 2.14286 18H3.21429V16H2.14286V2H8.57143V6H12.8571V16H11.7857V18H12.8571C13.4255 18 13.9705 17.7893 14.3724 17.4142C14.7742 17.0391 15 16.5304 15 16V5L9.64286 0ZM9.64286 11V9L7.5 10L5.35714 9V11L3.21429 12L5.35714 13V15L7.5 14L9.64286 15V13L11.7857 12L9.64286 11ZM5.35714 21L7.5 20L9.64286 21V16H5.35714V21ZM9.64286 11V9L7.5 10L5.35714 9V11L3.21429 12L5.35714 13V15L7.5 14L9.64286 15V13L11.7857 12L9.64286 11Z" fill="#C4C4C4"/>
</svg>
