<svg width="20" height="12" viewBox="0 0 20 12" fill="none" xmlns="http://www.w3.org/2000/svg">
<g clip-path="url(#clip0_772_457)">
<path d="M14.0342 4.75C15.3459 4.75 16.4092 3.68668 16.4092 2.375C16.4092 1.06332 15.3459 0 14.0342 0C12.7225 0 11.6592 1.06332 11.6592 2.375C11.6592 3.68668 12.7225 4.75 14.0342 4.75Z" fill="#C4C4C4"/>
<path d="M6.90918 4.75C8.22086 4.75 9.28418 3.68668 9.28418 2.375C9.28418 1.06332 8.22086 0 6.90918 0C5.5975 0 4.53418 1.06332 4.53418 2.375C4.53418 3.68668 5.5975 4.75 6.90918 4.75Z" fill="#C4C4C4"/>
<path d="M19.4571 5.93766L13.4009 7.12516H7.58213L1.52588 5.93766L3.22796 2.81058C3.66338 2.0585 4.45505 1.5835 5.32588 1.5835H15.6967C16.5675 1.5835 17.3592 2.0585 17.7946 2.81058L19.4571 5.93766Z" fill="#C4C4C4"/>
<path d="M16.0133 11.8752C18.1994 11.8752 19.9716 10.103 19.9716 7.91683C19.9716 5.7307 18.1994 3.9585 16.0133 3.9585C13.8271 3.9585 12.0549 5.7307 12.0549 7.91683C12.0549 10.103 13.8271 11.8752 16.0133 11.8752Z" fill="#C4C4C4"/>
<path d="M4.93001 11.8752C7.11614 11.8752 8.88835 10.103 8.88835 7.91683C8.88835 5.7307 7.11614 3.9585 4.93001 3.9585C2.74389 3.9585 0.97168 5.7307 0.97168 7.91683C0.97168 10.103 2.74389 11.8752 4.93001 11.8752Z" fill="#C4C4C4"/>
<path d="M10.4716 9.10433C11.5647 9.10433 12.4508 8.21823 12.4508 7.12516C12.4508 6.0321 11.5647 5.146 10.4716 5.146C9.37853 5.146 8.49243 6.0321 8.49243 7.12516C8.49243 8.21823 9.37853 9.10433 10.4716 9.10433Z" fill="#C4C4C4"/>
<path d="M10.4716 7.91683C10.9088 7.91683 11.2633 7.56239 11.2633 7.12516C11.2633 6.68794 10.9088 6.3335 10.4716 6.3335C10.0344 6.3335 9.67993 6.68794 9.67993 7.12516C9.67993 7.56239 10.0344 7.91683 10.4716 7.91683Z" fill="white"/>
<path d="M16.0133 10.6877C17.5436 10.6877 18.7841 9.44712 18.7841 7.91683C18.7841 6.38654 17.5436 5.146 16.0133 5.146C14.483 5.146 13.2424 6.38654 13.2424 7.91683C13.2424 9.44712 14.483 10.6877 16.0133 10.6877Z" fill="white"/>
<path d="M4.93001 10.6877C6.4603 10.6877 7.70085 9.44712 7.70085 7.91683C7.70085 6.38654 6.4603 5.146 4.93001 5.146C3.39972 5.146 2.15918 6.38654 2.15918 7.91683C2.15918 9.44712 3.39972 10.6877 4.93001 10.6877Z" fill="white"/>
</g>
<defs>
<clipPath id="clip0_772_457">
<rect width="19" height="11.875" fill="white" transform="translate(0.97168)"/>
</clipPath>
</defs>
</svg>
