<svg width="17" height="21" viewBox="0 0 17 21" fill="none" xmlns="http://www.w3.org/2000/svg">
<rect y="2.48779" width="0.829268" height="17.8293" rx="0.414634" fill="#C4C4C4"/>
<rect x="3.73169" y="2.48779" width="0.829268" height="17.8293" rx="0.414634" fill="#C4C4C4"/>
<rect y="17.4146" width="0.829268" height="4.14634" rx="0.414634" transform="rotate(-90 0 17.4146)" fill="#C4C4C4"/>
<rect y="14.9268" width="0.829268" height="4.14634" rx="0.414634" transform="rotate(-90 0 14.9268)" fill="#C4C4C4"/>
<rect y="12.0244" width="0.829268" height="4.14634" rx="0.414634" transform="rotate(-90 0 12.0244)" fill="#C4C4C4"/>
<rect y="9.53662" width="0.829268" height="4.14634" rx="0.414634" transform="rotate(-90 0 9.53662)" fill="#C4C4C4"/>
<rect y="7.04883" width="0.829268" height="4.14634" rx="0.414634" transform="rotate(-90 0 7.04883)" fill="#C4C4C4"/>
<rect x="12.439" width="0.829268" height="18.6585" rx="0.414634" fill="#C4C4C4"/>
<rect x="16.1707" width="0.829268" height="18.6585" rx="0.414634" fill="#C4C4C4"/>
<rect x="12.439" y="14.9268" width="0.829268" height="4.14634" rx="0.414634" transform="rotate(-90 12.439 14.9268)" fill="#C4C4C4"/>
<rect x="12.439" y="12.439" width="0.829268" height="4.14634" rx="0.414634" transform="rotate(-90 12.439 12.439)" fill="#C4C4C4"/>
<rect x="12.439" y="9.95117" width="0.829268" height="4.14634" rx="0.414634" transform="rotate(-90 12.439 9.95117)" fill="#C4C4C4"/>
<rect x="12.439" y="7.04883" width="0.829268" height="4.14634" rx="0.414634" transform="rotate(-90 12.439 7.04883)" fill="#C4C4C4"/>
<rect x="12.439" y="4.14648" width="0.829268" height="4.14634" rx="0.414634" transform="rotate(-90 12.439 4.14648)" fill="#C4C4C4"/>
<path d="M3.86572 17.4195C3.68909 17.4459 3.53144 17.3232 3.51361 17.1455C3.49578 16.9678 3.62452 16.8023 3.80115 16.7759L16.3487 14.9C16.5254 14.8736 16.683 14.9962 16.7008 15.1739C16.7187 15.3516 16.5899 15.5171 16.4133 15.5435L3.86572 17.4195Z" fill="#C4C4C4"/>
<path d="M3.85037 6.64149C3.68221 6.66663 3.53214 6.54987 3.51516 6.3807C3.49819 6.21153 3.62074 6.054 3.7889 6.02886L16.3672 4.1483C16.5353 4.12316 16.6854 4.23992 16.7024 4.40909C16.7194 4.57826 16.5968 4.73579 16.4286 4.76093L3.85037 6.64149Z" fill="#C4C4C4"/>
<path d="M0.490181 5.98014C0.332049 6.00378 0.190917 5.89398 0.174954 5.73489C0.158991 5.5758 0.274242 5.42766 0.432374 5.40402L12.7056 3.56906C12.8638 3.54542 13.0049 3.65522 13.0209 3.81431C13.0368 3.9734 12.9216 4.12154 12.7634 4.14518L0.490181 5.98014Z" fill="#C4C4C4"/>
<path d="M4.30302 7.0491C4.17328 6.95564 4.14888 6.7785 4.2485 6.65345C4.34813 6.52839 4.53406 6.50277 4.66379 6.59623L16.1538 14.8735C16.2835 14.9669 16.3079 15.1441 16.2083 15.2691C16.1087 15.3942 15.9227 15.4198 15.793 15.3264L4.30302 7.0491Z" fill="#C4C4C4"/>
<path d="M15.9519 4.60545C16.0648 4.4922 16.2435 4.49622 16.3512 4.61444C16.4588 4.73265 16.4546 4.92029 16.3418 5.03354L4.47954 16.9363C4.36668 17.0496 4.18791 17.0456 4.08025 16.9273C3.97259 16.8091 3.97681 16.6215 4.08968 16.5082L15.9519 4.60545Z" fill="#C4C4C4"/>
</svg>
