<svg width="17" height="17" viewBox="0 0 17 17" fill="none" xmlns="http://www.w3.org/2000/svg">
<g clip-path="url(#clip0_772_568)">
<path d="M8.35928 0.85C4.0753 0.85 0.590234 4.33506 0.590234 8.61905C0.590234 12.903 4.0753 16.3881 8.35928 16.3881C12.6433 16.3881 16.1283 12.903 16.1283 8.61905C16.1283 4.33506 12.6433 0.85 8.35928 0.85ZM8.35928 14.5643C5.08136 14.5643 2.41404 11.897 2.41404 8.61905C2.41404 5.34113 5.08136 2.67381 8.35928 2.67381C11.6372 2.67381 14.3045 5.34113 14.3045 8.61905C14.3045 11.897 11.6372 14.5643 8.35928 14.5643Z" fill="#C4C4C4" stroke="#C4C4C4" stroke-width="0.3"/>
<path d="M7.59741 7.75719H7.49741V7.85719V12.4286V12.5286H7.59741H9.12122H9.22122V12.4286V7.85719V7.75719H9.12122H7.59741ZM7.59741 4.70957H7.49741V4.80957V6.33338V6.43338H7.59741H9.12122H9.22122V6.33338V4.80957V4.70957H9.12122H7.59741Z" fill="#C4C4C4" stroke="#C4C4C4" stroke-width="0.2"/>
</g>
<defs>
<clipPath id="clip0_772_568">
<rect width="17" height="17" fill="white"/>
</clipPath>
</defs>
</svg>
