<svg width="17" height="17" viewBox="0 0 17 17" fill="none" xmlns="http://www.w3.org/2000/svg">
<path d="M7.57031 13.2148C7.57031 12.964 7.65885 12.7426 7.83594 12.5508C8.01302 12.3589 8.23438 12.263 8.5 12.263C8.76562 12.263 8.98698 12.3589 9.16406 12.5508C9.34115 12.7426 9.42969 12.964 9.42969 13.2148C9.42969 13.4657 9.34115 13.6871 9.16406 13.8789C8.98698 14.0707 8.76562 14.1667 8.5 14.1667C8.23438 14.1667 8.01302 14.0707 7.83594 13.8789C7.65885 13.6871 7.57031 13.4657 7.57031 13.2148ZM7.57031 0H8.5C10.8611 0 12.8681 0.826389 14.5208 2.47917C16.1736 4.13194 17 6.13889 17 8.5C17 10.8611 16.1736 12.8681 14.5208 14.5208C12.8681 16.1736 10.8611 17 8.5 17C6.13889 17 4.13194 16.1736 2.47917 14.5208C0.826389 12.8681 0 10.8611 0 8.5C0 7.14236 0.302517 5.86589 0.907552 4.67057C1.51259 3.47526 2.34635 2.49392 3.40885 1.72656V1.68229L9.82812 8.10156L8.5 9.42969L3.36458 4.33854C2.39062 5.54861 1.90365 6.93576 1.90365 8.5C1.90365 10.3299 2.54557 11.8867 3.82943 13.1706C5.11328 14.4544 6.67014 15.0964 8.5 15.0964C10.3299 15.0964 11.8867 14.4544 13.1706 13.1706C14.4544 11.8867 15.0964 10.3299 15.0964 8.5C15.0964 6.84722 14.5577 5.40104 13.4805 4.16146C12.4032 2.92187 11.053 2.18403 9.42969 1.94792V3.76302H7.57031V0ZM14.1667 8.5C14.1667 8.76562 14.0707 8.98698 13.8789 9.16406C13.6871 9.34115 13.4657 9.42969 13.2148 9.42969C12.964 9.42969 12.7426 9.34115 12.5508 9.16406C12.3589 8.98698 12.263 8.76562 12.263 8.5C12.263 8.23438 12.3589 8.01302 12.5508 7.83594C12.7426 7.65885 12.964 7.57031 13.2148 7.57031C13.4657 7.57031 13.6871 7.65885 13.8789 7.83594C14.0707 8.01302 14.1667 8.23438 14.1667 8.5ZM2.83333 8.5C2.83333 8.23438 2.92925 8.01302 3.12109 7.83594C3.31293 7.65885 3.53429 7.57031 3.78516 7.57031C4.03602 7.57031 4.25738 7.65885 4.44922 7.83594C4.64106 8.01302 4.73698 8.23438 4.73698 8.5C4.73698 8.76562 4.64106 8.98698 4.44922 9.16406C4.25738 9.34115 4.03602 9.42969 3.78516 9.42969C3.53429 9.42969 3.31293 9.34115 3.12109 9.16406C2.92925 8.98698 2.83333 8.76562 2.83333 8.5Z" fill="#C4C4C4"/>
</svg>
