<svg width="22" height="25" viewBox="0 0 22 25" fill="none" xmlns="http://www.w3.org/2000/svg">
<path d="M9.64383 14.9995V12.9995L7.50098 13.9995L5.35812 12.9995V14.9995L3.21526 15.9995L5.35812 16.9995V18.9995L7.50098 17.9995L9.64383 18.9995V16.9995L11.7867 15.9995L9.64383 14.9995ZM9.64383 3.99951H2.14383C1.57551 3.99951 1.03047 4.21023 0.628605 4.5853C0.226741 4.96037 0.000976563 5.46908 0.000976562 5.99951V19.9995C0.000976563 20.5299 0.226741 21.0387 0.628605 21.4137C1.03047 21.7888 1.57551 21.9995 2.14383 21.9995H3.21526V19.9995H2.14383V5.99951H8.5724V9.99951H12.8581V19.9995H11.7867V21.9995H12.8581C13.4264 21.9995 13.9715 21.7888 14.3733 21.4137C14.7752 21.0387 15.001 20.5299 15.001 19.9995V8.99951L9.64383 3.99951ZM9.64383 14.9995V12.9995L7.50098 13.9995L5.35812 12.9995V14.9995L3.21526 15.9995L5.35812 16.9995V18.9995L7.50098 17.9995L9.64383 18.9995V16.9995L11.7867 15.9995L9.64383 14.9995ZM5.35812 24.9995L7.50098 23.9995L9.64383 24.9995V19.9995H5.35812V24.9995ZM9.64383 14.9995V12.9995L7.50098 13.9995L5.35812 12.9995V14.9995L3.21526 15.9995L5.35812 16.9995V18.9995L7.50098 17.9995L9.64383 18.9995V16.9995L11.7867 15.9995L9.64383 14.9995Z" fill="#C4C4C4"/>
<path d="M14.197 1.04638L13.9001 0.645954C13.7728 0.740313 13.679 0.872825 13.6322 1.0242L13.6315 1.02674L13.3068 2.0981C13.1205 2.16397 12.9381 2.2405 12.7606 2.32731L11.793 1.80484L11.7931 1.80483L11.79 1.80319C11.6486 1.72811 11.4868 1.70062 11.3285 1.7248C11.1722 1.74868 11.0276 1.82171 10.9157 1.93324L9.94513 2.87982L9.94513 2.87981L9.94281 2.8821C9.82894 2.99462 9.75438 3.14085 9.73021 3.29909C9.70603 3.45734 9.73352 3.61916 9.8086 3.76054L9.80859 3.76055L9.81024 3.76362L10.3326 4.73086C10.2462 4.90706 10.1699 5.08805 10.1042 5.27294L9.02854 5.5979L9.02854 5.59789L9.02561 5.5988C8.87423 5.64555 8.74172 5.73939 8.64736 5.86666L9.04778 6.16352L8.64736 5.86666C8.553 5.99393 8.50172 6.148 8.50098 6.30643H8.50098V6.30876L8.50097 7.66208L8.50098 7.66441C8.50172 7.82284 8.553 7.97691 8.64736 8.10418C8.74171 8.23146 8.87423 8.3253 9.02561 8.37205L9.0256 8.37206L9.02934 8.37318L10.1146 8.69909C10.1804 8.87992 10.2563 9.05692 10.3419 9.22927L9.8086 10.2503C9.80827 10.251 9.80794 10.2516 9.80762 10.2522C9.73328 10.3931 9.70613 10.5542 9.73021 10.7118C9.75429 10.8694 9.82835 11.0151 9.94147 11.1275C9.94191 11.1279 9.94236 11.1283 9.94281 11.1288L10.8955 12.0815C10.896 12.0819 10.8964 12.0824 10.8968 12.0828C11.0092 12.1959 11.1549 12.27 11.3125 12.2941C11.4708 12.3183 11.6326 12.2908 11.774 12.2157L11.775 12.2152L12.7831 11.6768C12.9494 11.7555 13.1198 11.8253 13.2935 11.8858L13.6186 12.9814L13.6186 12.9814L13.6202 12.9867C13.667 13.1381 13.7608 13.2706 13.8881 13.3649L14.1859 12.9633L13.8881 13.3649C14.0154 13.4593 14.1694 13.5106 14.3279 13.5113H14.3302L15.6835 13.5113L15.6858 13.5113C15.8443 13.5106 15.9983 13.4593 16.1256 13.3649L15.8278 12.9633L16.1256 13.3649C16.2529 13.2706 16.3467 13.1381 16.3935 12.9867L16.3935 12.9867L16.3952 12.981L16.7208 11.8806C16.8918 11.8203 17.0596 11.7511 17.2233 11.6732L18.2388 12.2152L18.2397 12.2157C18.3811 12.2908 18.5429 12.3183 18.7012 12.2941C18.8588 12.27 19.0044 12.196 19.1167 12.083C19.1172 12.0825 19.1177 12.082 19.1182 12.0815L20.0709 11.1288C20.0714 11.1283 20.0719 11.1278 20.0723 11.1273C20.1854 11.015 20.2594 10.8694 20.2835 10.7118L20.2835 10.7118C20.3077 10.5535 20.2802 10.3917 20.2051 10.2503L20.2043 10.2488L19.6631 9.23827C19.7422 9.07312 19.8125 8.90388 19.8736 8.73127L20.9708 8.40568L20.9708 8.40571L20.9761 8.40408C21.1274 8.35733 21.26 8.26349 21.3543 8.13622L21.3543 8.13621C21.4487 8.00894 21.5 7.85488 21.5007 7.69644V7.69411V6.33742C21.5047 6.19084 21.4653 6.04622 21.3872 5.9218C21.3066 5.79312 21.1884 5.69222 21.0487 5.63264L21.0227 5.62153L20.9956 5.61344L19.908 5.28879C19.8464 5.11062 19.7751 4.93595 19.6944 4.76557L20.2285 3.76564L20.2291 3.76455C20.3042 3.62317 20.3317 3.46134 20.3075 3.3031C20.2835 3.14567 20.2095 3.00014 20.0967 2.88787L19.1422 1.92939C19.1419 1.92911 19.1416 1.92883 19.1414 1.92856C19.029 1.81516 18.8831 1.74091 18.7252 1.71679C18.567 1.69261 18.4051 1.72011 18.2638 1.79518L18.2626 1.79581L17.275 2.32359C17.0997 2.23732 16.9195 2.1611 16.7355 2.09529L16.4104 1.01913L16.4075 1.00946L16.4042 0.999922C16.3525 0.851095 16.255 0.72248 16.1257 0.632589C15.9983 0.544055 15.8465 0.497582 15.6914 0.499573L14.3422 0.499568L14.3399 0.499578C14.1814 0.500316 14.0274 0.551596 13.9001 0.645952L14.197 1.04638ZM14.197 1.04638L14.1976 1.0473L14.197 1.04638ZM15.0189 8.70759C14.6822 8.70759 14.3531 8.60776 14.0732 8.42073C13.7933 8.23369 13.5751 7.96785 13.4463 7.65683C13.3174 7.3458 13.2837 7.00355 13.3494 6.67337C13.4151 6.34318 13.5772 6.03989 13.8153 5.80184C14.0533 5.56379 14.3566 5.40167 14.6868 5.336C15.017 5.27032 15.3592 5.30403 15.6702 5.43286C15.9813 5.56169 16.2471 5.77986 16.4341 6.05978C16.6212 6.33969 16.721 6.66879 16.721 7.00544C16.721 7.45688 16.5417 7.88983 16.2225 8.20904C15.9032 8.52826 15.4703 8.70759 15.0189 8.70759Z" fill="#C4C4C4" stroke="white"/>
</svg>
