<svg width="16" height="17" viewBox="0 0 16 17" fill="none" xmlns="http://www.w3.org/2000/svg">
<path d="M13.7652 12.6858C13.0825 12.6858 12.4713 12.9833 12.0613 13.4506L5.20874 12.3064L10.1236 9.71435C10.4815 9.95048 10.9141 10.0891 11.3794 10.0891C12.6113 10.0891 13.6129 9.12114 13.6129 7.93164C13.6129 6.74253 12.6105 5.77458 11.3794 5.77458C11.1742 5.77458 10.9762 5.80376 10.7881 5.85368L7.76599 3.0151C7.88488 2.7517 7.95169 2.46182 7.95169 2.15657C7.95169 0.967079 6.94923 -0.000488281 5.71732 -0.000488281C4.48542 -0.000488281 3.48296 0.967079 3.48296 2.15619C3.48296 3.3453 4.48542 4.31325 5.71693 4.31325C5.89428 4.31325 6.06646 4.29098 6.23227 4.25297L9.30407 7.13762C9.20228 7.38374 9.14541 7.65059 9.14541 7.93126C9.14541 7.96773 9.14939 8.00344 9.15138 8.03915L3.38713 11.0789C3.04993 10.8816 2.65626 10.766 2.23396 10.766C1.00206 10.766 0 11.734 0 12.9231C0 14.1122 1.00246 15.0797 2.23396 15.0797C3.02766 15.0797 3.72433 14.677 4.12078 14.0726L11.5885 15.3197C11.814 16.2796 12.7039 16.9995 13.7656 16.9995C14.9979 16.9995 16 16.0316 16 14.8428C15.9996 13.6533 14.9963 12.6858 13.7652 12.6858ZM12.42 7.93164C12.42 8.48646 11.9532 8.93722 11.3794 8.93722C10.8056 8.93722 10.3383 8.48646 10.3383 7.93164C10.3383 7.37721 10.8056 6.92645 11.3794 6.92645C11.9532 6.92645 12.42 7.37721 12.42 7.93164ZM4.6759 2.15619C4.6759 1.60176 5.14313 1.15099 5.71693 1.15099C6.29073 1.15099 6.75796 1.60176 6.75796 2.15619C6.75796 2.71062 6.29073 3.16138 5.71693 3.16138C5.14313 3.16138 4.6759 2.71062 4.6759 2.15619ZM2.23317 13.9283C1.65937 13.9283 1.19214 13.4775 1.19214 12.9227C1.19214 12.3686 1.65937 11.9179 2.23317 11.9179C2.80697 11.9179 3.2742 12.3686 3.2742 12.9227C3.2742 13.4779 2.80737 13.9283 2.23317 13.9283ZM13.7652 15.848C13.1914 15.848 12.7242 15.3973 12.7242 14.8425C12.7242 14.2884 13.1914 13.8376 13.7652 13.8376C14.339 13.8376 14.8059 14.2884 14.8059 14.8425C14.8059 15.3977 14.339 15.848 13.7652 15.848Z" fill="#C4C4C4"/>
</svg>
