<svg width="17" height="18" viewBox="0 0 17 18" fill="none" xmlns="http://www.w3.org/2000/svg">
<path d="M6.83309 6.33252H3.49976" stroke="#C4C4C4" stroke-width="1.5" stroke-linecap="round" stroke-linejoin="round"/>
<path d="M11.4163 8.11095C10.8638 8.11095 10.3339 7.87682 9.9432 7.46007C9.5525 7.04333 9.33301 6.4781 9.33301 5.88873C9.33301 5.29936 9.5525 4.73413 9.9432 4.31738C10.3339 3.90063 10.8638 3.6665 11.4163 3.6665C11.9689 3.6665 12.4988 3.90063 12.8895 4.31738C13.2802 4.73413 13.4997 5.29936 13.4997 5.88873C13.4997 6.4781 13.2802 7.04333 12.8895 7.46007C12.4988 7.87682 11.9689 8.11095 11.4163 8.11095Z" stroke="#C4C4C4" stroke-width="1.5" stroke-linecap="round" stroke-linejoin="round"/>
<path d="M3.49976 3.6665H5.99976" stroke="#C4C4C4" stroke-width="1.5" stroke-linecap="round" stroke-linejoin="round"/>
<path d="M13.4998 14.3326L9.74976 11.666L7.66642 13.4437L3.49976 9.88818" stroke="#C4C4C4" stroke-width="1.5" stroke-linecap="round" stroke-linejoin="round"/>
<path d="M1 16.4662V1.53284C1 1.3914 1.05268 1.25574 1.14645 1.15572C1.24021 1.0557 1.36739 0.999512 1.5 0.999512H15.5C15.6326 0.999512 15.7598 1.0557 15.8536 1.15572C15.9473 1.25574 16 1.3914 16 1.53284V16.4662C16 16.6076 15.9473 16.7433 15.8536 16.8433C15.7598 16.9433 15.6326 16.9995 15.5 16.9995H1.5C1.36739 16.9995 1.24021 16.9433 1.14645 16.8433C1.05268 16.7433 1 16.6076 1 16.4662V16.4662Z" stroke="#C4C4C4" stroke-width="1.5"/>
</svg>
