<svg width="16" height="18" viewBox="0 0 16 18" fill="none" xmlns="http://www.w3.org/2000/svg">
<g clip-path="url(#clip0_772_522)">
<path d="M14.6666 17.5574H4.66659C4.31307 17.557 3.97414 17.4261 3.72417 17.1934C3.47419 16.9607 3.3336 16.6451 3.33325 16.316V12.5918H4.66659V16.316H14.6666V2.66081H8.66659V1.41943H14.6666C15.0201 1.41976 15.359 1.55066 15.609 1.78339C15.859 2.01612 15.9996 2.33168 15.9999 2.66081V16.316C15.9996 16.6451 15.859 16.9607 15.609 17.1934C15.359 17.4261 15.0201 17.557 14.6666 17.5574Z" fill="#C4C4C4"/>
<path d="M8.66675 5.14355H13.3334V6.38493H8.66675V5.14355Z" fill="#C4C4C4"/>
<path d="M8 8.24707H13.3333V9.48845H8V8.24707Z" fill="#C4C4C4"/>
<path d="M7.33325 11.3501H13.3333V12.5915H7.33325V11.3501Z" fill="#C4C4C4"/>
<path d="M3.33333 10.7295C2.44955 10.7286 1.60222 10.4014 0.977285 9.81957C0.352355 9.23774 0.000882461 8.44884 0 7.62601V0.798424H1.33333V7.62601C1.33333 8.11986 1.54405 8.59349 1.91912 8.94269C2.29419 9.2919 2.8029 9.48808 3.33333 9.48808C3.86377 9.48808 4.37247 9.2919 4.74755 8.94269C5.12262 8.59349 5.33333 8.11986 5.33333 7.62601V2.0398C5.33333 1.87519 5.26309 1.71731 5.13807 1.60091C5.01305 1.48451 4.84348 1.41911 4.66667 1.41911C4.48986 1.41911 4.32029 1.48451 4.19526 1.60091C4.07024 1.71731 4 1.87519 4 2.0398V8.2467H2.66667V2.0398C2.66667 1.54595 2.87738 1.07233 3.25245 0.723122C3.62753 0.373916 4.13623 0.177734 4.66667 0.177734C5.1971 0.177734 5.70581 0.373916 6.08088 0.723122C6.45595 1.07233 6.66667 1.54595 6.66667 2.0398V7.62601C6.66578 8.44884 6.31431 9.23774 5.68938 9.81957C5.06445 10.4014 4.21712 10.7286 3.33333 10.7295Z" fill="#C4C4C4"/>
</g>
<defs>
<clipPath id="clip0_772_522">
<rect width="16" height="18" fill="white"/>
</clipPath>
</defs>
</svg>
