<svg width="17" height="16" viewBox="0 0 17 16" fill="none" xmlns="http://www.w3.org/2000/svg">
<g clip-path="url(#clip0_772_585)">
<path d="M14.7378 14.7095H15.7701V15.7417H14.7378V14.7095Z" fill="#969696"/>
<path d="M14.7378 14.7095H15.2539V15.7417H14.7378V14.7095Z" fill="#969696"/>
<path d="M12.6733 13.1611H13.7056V14.1934H12.6733V13.1611Z" fill="#969696"/>
<path d="M12.6733 13.1611H13.1895V14.1934H12.6733V13.1611Z" fill="#969696"/>
<path d="M2.35083 13.1611H3.38309V14.1934H2.35083V13.1611Z" fill="#969696"/>
<path d="M2.35083 13.1611H2.86696V14.1934H2.35083V13.1611Z" fill="#969696"/>
<path d="M0.286133 14.7095H1.31839V15.7417H0.286133V14.7095Z" fill="#969696"/>
<path d="M0.286133 14.7095H0.802262V15.7417H0.286133V14.7095Z" fill="#969696"/>
<path d="M15.5124 14.7097H14.9963V0.516129H1.06081V14.7097H0.544678V0.258064C0.544678 0.115675 0.660353 0 0.802742 0H15.2544C15.3967 0 15.5124 0.115675 15.5124 0.258064V14.7097Z" fill="#C4C4C4"/>
<path d="M13.1894 3.09684H2.86685C2.79843 3.09684 2.73265 3.06974 2.68439 3.02123L0.619873 0.956716L0.984792 0.591797L2.9737 2.58071H13.0826L15.0715 0.591797L15.4364 0.956716L13.3719 3.02123C13.3236 3.06974 13.2579 3.09684 13.1894 3.09684Z" fill="#C4C4C4"/>
<path d="M2.72046 12.1735L15.1098 3.65942L15.4022 4.08483L3.0128 12.5989L2.72046 12.1735Z" fill="#C4C4C4"/>
<path d="M0.655762 4.08324L0.948226 3.65796L13.3346 12.1736L13.0422 12.5989L0.655762 4.08324Z" fill="#C4C4C4"/>
<path d="M2.60913 2.83887H3.12526V13.1614H2.60913V2.83887Z" fill="#C4C4C4"/>
<path d="M12.9316 2.83887H13.4478V13.1614H12.9316V2.83887Z" fill="#C4C4C4"/>
<path d="M13.7056 14.4517H12.6733C12.531 14.4517 12.4153 14.3364 12.4153 14.1936V13.1614C12.4153 13.0186 12.531 12.9033 12.6733 12.9033H13.7056C13.848 12.9033 13.9637 13.0186 13.9637 13.1614V14.1936C13.9637 14.3364 13.848 14.4517 13.7056 14.4517ZM12.9314 13.9356H13.4475V13.4194H12.9314V13.9356Z" fill="#C4C4C4"/>
<path d="M15.7703 16H14.738C14.5957 16 14.48 15.8848 14.48 15.742V14.7097C14.48 14.567 14.5957 14.4517 14.738 14.4517H15.7703C15.9127 14.4517 16.0284 14.567 16.0284 14.7097V15.742C16.0284 15.8848 15.9127 16 15.7703 16ZM14.9961 15.4839H15.5122V14.9678H14.9961V15.4839Z" fill="#C4C4C4"/>
<path d="M1.31864 16H0.286385C0.143996 16 0.0283203 15.8848 0.0283203 15.742V14.7097C0.0283203 14.567 0.143996 14.4517 0.286385 14.4517H1.31864C1.46103 14.4517 1.57671 14.567 1.57671 14.7097V15.742C1.57671 15.8848 1.46103 16 1.31864 16ZM0.544449 15.4839H1.06058V14.9678H0.544449V15.4839Z" fill="#C4C4C4"/>
<path d="M3.38334 14.4517H2.35108C2.20869 14.4517 2.09302 14.3364 2.09302 14.1936V13.1614C2.09302 13.0186 2.20869 12.9033 2.35108 12.9033H3.38334C3.52573 12.9033 3.6414 13.0186 3.6414 13.1614V14.1936C3.6414 14.3364 3.52573 14.4517 3.38334 14.4517ZM2.60915 13.9356H3.12528V13.4194H2.60915V13.9356Z" fill="#C4C4C4"/>
<path d="M9.36597 2.69052L11.1719 0.109375L11.5948 0.405242L9.78885 2.98652L9.36597 2.69052Z" fill="#C4C4C4"/>
<path d="M4.71997 0.405856L5.14285 0.109863L6.94943 2.69051L6.52667 2.9865L4.71997 0.405856Z" fill="#C4C4C4"/>
<path d="M0.632812 2.5169L0.972656 2.12842L3.03717 3.93487L2.69733 4.32335L0.632812 2.5169Z" fill="#C4C4C4"/>
<path d="M13.0195 3.93464L15.0835 2.12769L15.4235 2.51604L13.3595 4.323L13.0195 3.93464Z" fill="#C4C4C4"/>
<path d="M14.4799 3.22576H13.9638V2.06447H2.09279V3.22576H1.57666V1.8064C1.57666 1.66402 1.69234 1.54834 1.83472 1.54834H14.2218C14.3642 1.54834 14.4799 1.66402 14.4799 1.8064V3.22576Z" fill="#C4C4C4"/>
<path d="M0.957433 12.8519L0.647705 12.4391L1.57676 11.7423V4.64551H2.09289V11.8713C2.09289 11.9523 2.05471 12.0289 1.98969 12.0777L0.957433 12.8519Z" fill="#C4C4C4"/>
<path d="M0.686768 6.68227L0.917488 6.2207L1.94975 6.73683L1.7189 7.1984L0.686768 6.68227Z" fill="#C4C4C4"/>
<path d="M0.740234 9.55592L1.77237 9.29761L1.89762 9.79811L0.865486 10.0564L0.740234 9.55592Z" fill="#C4C4C4"/>
<path d="M15.0991 12.8519L14.0668 12.0777C14.0018 12.0289 13.9636 11.9523 13.9636 11.8713V4.64551H14.4798V11.7423L15.4088 12.4391L15.0991 12.8519Z" fill="#C4C4C4"/>
<path d="M14.1057 6.73646L15.138 6.22046L15.3688 6.68203L14.3366 7.19815L14.1057 6.73646Z" fill="#C4C4C4"/>
<path d="M14.1584 9.79909L14.2836 9.29858L15.3157 9.55665L15.1906 10.057L14.1584 9.79909Z" fill="#C4C4C4"/>
</g>
<defs>
<clipPath id="clip0_772_585">
<rect width="16" height="16" fill="white" transform="translate(0.0283203)"/>
</clipPath>
</defs>
</svg>
