<svg width="17" height="15" viewBox="0 0 17 15" fill="none" xmlns="http://www.w3.org/2000/svg">
<path d="M0.97168 6.93961C0.972758 5.99836 1.3477 5.09598 2.01426 4.43042C2.68082 3.76486 3.58456 3.39047 4.52721 3.3894L7.4889 3.3894C7.52734 3.38925 11.369 3.33836 15.0242 0.277346C15.1969 0.132422 15.4075 0.0397468 15.6312 0.010213C15.8549 -0.0193208 16.0823 0.0155145 16.2869 0.110624C16.4914 0.205734 16.6645 0.357166 16.7858 0.547121C16.9071 0.737075 16.9716 0.957659 16.9717 1.18294L16.9717 12.6963C16.973 12.9217 16.9093 13.1427 16.788 13.3328C16.6667 13.5229 16.4931 13.674 16.288 13.7681C16.1302 13.8421 15.9581 13.8806 15.7838 13.8809C15.5056 13.8804 15.2365 13.7815 15.0243 13.6019C12.2186 11.2523 9.30326 10.6763 8.08275 10.5354L8.08275 13.1317C8.08297 13.3265 8.03491 13.5184 7.94283 13.6902C7.85076 13.862 7.71754 14.0084 7.55505 14.1163L6.74076 14.6584C6.58273 14.7636 6.40169 14.8293 6.21291 14.8501C6.02412 14.8708 5.83312 14.8459 5.65597 14.7775C5.47883 14.7091 5.32074 14.5992 5.19502 14.4571C5.06931 14.3149 4.97964 14.1447 4.93358 13.9607L4.05655 10.4577C3.20322 10.3429 2.42047 9.92324 1.85327 9.27639C1.28608 8.62953 0.972875 7.79935 0.97168 6.93961ZM6.08343 13.6737L6.89757 13.1317L6.89757 10.4898L5.28617 10.4898L6.08343 13.6737ZM4.52721 9.30641L6.89757 9.30641V4.5728H4.52721C3.89856 4.5728 3.29565 4.82216 2.85112 5.26602C2.40659 5.70988 2.15686 6.31189 2.15686 6.93961C2.15686 7.56732 2.40659 8.16933 2.85112 8.61319C3.29565 9.05705 3.89856 9.30641 4.52721 9.30641Z" fill="#C4C4C4"/>
</svg>
