<svg width="17" height="20" viewBox="0 0 17 20" fill="none" xmlns="http://www.w3.org/2000/svg">
<path d="M14.9717 2.5H11.6383C11.6383 1.12109 10.4425 0 8.97168 0C7.50085 0 6.30501 1.12109 6.30501 2.5H2.97168C1.86751 2.5 0.97168 3.33984 0.97168 4.375V18.125C0.97168 19.1602 1.86751 20 2.97168 20H14.9717C16.0758 20 16.9717 19.1602 16.9717 18.125V4.375C16.9717 3.33984 16.0758 2.5 14.9717 2.5ZM4.97168 16.5625C4.41751 16.5625 3.97168 16.1445 3.97168 15.625C3.97168 15.1055 4.41751 14.6875 4.97168 14.6875C5.52585 14.6875 5.97168 15.1055 5.97168 15.625C5.97168 16.1445 5.52585 16.5625 4.97168 16.5625ZM4.97168 12.8125C4.41751 12.8125 3.97168 12.3945 3.97168 11.875C3.97168 11.3555 4.41751 10.9375 4.97168 10.9375C5.52585 10.9375 5.97168 11.3555 5.97168 11.875C5.97168 12.3945 5.52585 12.8125 4.97168 12.8125ZM4.97168 9.0625C4.41751 9.0625 3.97168 8.64453 3.97168 8.125C3.97168 7.60547 4.41751 7.1875 4.97168 7.1875C5.52585 7.1875 5.97168 7.60547 5.97168 8.125C5.97168 8.64453 5.52585 9.0625 4.97168 9.0625ZM8.97168 1.5625C9.52585 1.5625 9.97168 1.98047 9.97168 2.5C9.97168 3.01953 9.52585 3.4375 8.97168 3.4375C8.41751 3.4375 7.97168 3.01953 7.97168 2.5C7.97168 1.98047 8.41751 1.5625 8.97168 1.5625ZM14.305 15.9375C14.305 16.1094 14.155 16.25 13.9717 16.25H7.97168C7.78835 16.25 7.63835 16.1094 7.63835 15.9375V15.3125C7.63835 15.1406 7.78835 15 7.97168 15H13.9717C14.155 15 14.305 15.1406 14.305 15.3125V15.9375ZM14.305 12.1875C14.305 12.3594 14.155 12.5 13.9717 12.5H7.97168C7.78835 12.5 7.63835 12.3594 7.63835 12.1875V11.5625C7.63835 11.3906 7.78835 11.25 7.97168 11.25H13.9717C14.155 11.25 14.305 11.3906 14.305 11.5625V12.1875ZM14.305 8.4375C14.305 8.60938 14.155 8.75 13.9717 8.75H7.97168C7.78835 8.75 7.63835 8.60938 7.63835 8.4375V7.8125C7.63835 7.64062 7.78835 7.5 7.97168 7.5H13.9717C14.155 7.5 14.305 7.64062 14.305 7.8125V8.4375Z" fill="#C4C4C4"/>
</svg>
